<?xml version="1.0" encoding="iso-8859-1"?>
<!-- Generator: Adobe Illustrator 19.0.0, SVG Export Plug-In . SVG Version: 6.00 Build 0)  -->
<svg xmlns="http://www.w3.org/2000/svg" xmlns:xlink="http://www.w3.org/1999/xlink" version="1.1" id="Capa_1" x="0px" y="0px" viewBox="0 0 512 512" style="enable-background:new 0 0 512 512;" xml:space="preserve" width="512px" height="512px">
<g>
	<g>
		<path d="M438.426,255.999C482.081,233.473,512,187.916,512,135.5C512,60.785,451.215,0,376.5,0    c-52.407,0-97.957,29.908-120.488,73.55c-6.263-12.205-14.49-23.655-24.698-33.864C205.721,14.094,171.693,0,135.5,0    S65.279,14.094,39.687,39.687c-52.83,52.831-52.83,138.795,0,191.626c10.062,10.062,21.432,18.338,33.72,24.687    c-12.289,6.35-23.659,14.625-33.721,24.687C14.094,306.28-0.001,340.307,0,376.5C0,451.215,60.785,512,135.5,512    c52.416,0,97.974-29.919,120.5-73.574C278.526,482.081,324.084,512,376.5,512c74.715,0,135.5-60.785,135.5-135.5    C512,324.083,482.081,278.525,438.426,255.999z M376.5,30C434.673,30,482,77.327,482,135.5S434.673,241,376.5,241    c-23.688,0-45.576-7.849-63.205-21.081l63.203-63.204l6.437,6.436c2.929,2.929,6.767,4.393,10.606,4.393s7.678-1.464,10.607-4.393    c5.858-5.858,5.858-15.355,0-21.213l-17.032-17.033c-0.004-0.004-0.006-0.007-0.01-0.01c-0.004-0.003-0.007-0.006-0.01-0.009    l-17.032-17.032c-5.857-5.858-15.355-5.858-21.213,0c-5.858,5.858-5.858,15.355,0,21.213l6.435,6.435l-63.203,63.204    C278.85,181.078,271,159.189,270.999,135.5C271,77.327,318.327,30,376.5,30z M60.899,210.1c-41.133-41.134-41.133-108.065,0-149.2    C80.826,40.974,107.32,30,135.5,30s54.674,10.974,74.6,30.9c37.532,37.534,40.811,96.542,9.85,137.836L156.713,135.5l6.436-6.435    c5.857-5.857,5.858-15.355,0.001-21.213c-5.859-5.859-15.356-5.859-21.214-0.001l-34.085,34.082    c-5.857,5.857-5.858,15.355-0.001,21.213c2.93,2.93,6.769,4.394,10.607,4.394c3.838,0,7.678-1.464,10.607-4.393l6.436-6.436    l63.246,63.247C180.594,233.611,158.615,241,135.5,241C107.32,241,80.826,230.026,60.899,210.1z M135.5,482    C77.327,482,30,434.673,30,376.5c0-28.18,10.974-54.673,30.899-74.6c19.927-19.926,46.42-30.9,74.601-30.9    c23.688,0,45.575,7.848,63.203,21.08l-63.206,63.207l-6.436-6.435c-5.857-5.857-15.355-5.858-21.213,0    c-5.858,5.858-5.858,15.355,0,21.213l17.032,17.031c0.003,0.003,0.006,0.007,0.009,0.01c0.003,0.004,0.007,0.006,0.011,0.009    l17.032,17.032c2.929,2.929,6.768,4.393,10.606,4.393c3.839,0,7.678-1.464,10.606-4.393c5.858-5.858,5.858-15.355,0-21.213    l-6.435-6.435l63.207-63.207C233.15,330.92,241,352.81,241,376.5C241,434.673,193.673,482,135.5,482z M197.509,256.044    c12.32-6.355,23.72-14.646,33.805-24.73c10.209-10.209,18.435-21.659,24.698-33.864c12.945,25.073,33.486,45.611,58.563,58.55    c-25.085,12.943-45.632,33.49-58.575,58.574C243.071,289.518,222.555,268.989,197.509,256.044z M376.5,482    C318.327,482,271,434.673,271,376.5c0-23.687,7.848-45.574,21.078-63.202l63.205,63.204l-6.435,6.434    c-5.857,5.858-5.858,15.355-0.001,21.213c2.93,2.93,6.769,4.394,10.607,4.394c3.839,0,7.678-1.464,10.606-4.393l34.084-34.081    c5.857-5.857,5.858-15.355,0.001-21.213c-5.859-5.859-15.357-5.858-21.214-0.001l-6.435,6.435l-63.207-63.206    c17.629-13.234,39.52-21.085,63.21-21.085c58.173,0,105.5,47.327,105.5,105.501C482,434.673,434.673,482,376.5,482z" fill="#FFFFFF"/>
	</g>
</g>
<g>
</g>
<g>
</g>
<g>
</g>
<g>
</g>
<g>
</g>
<g>
</g>
<g>
</g>
<g>
</g>
<g>
</g>
<g>
</g>
<g>
</g>
<g>
</g>
<g>
</g>
<g>
</g>
<g>
</g>
</svg>
